#N canvas 0 22 780 620 solar_system 12;
#X obj 30 20 loadbang;
#X obj 30 45 metro 7000;
#X obj 30 70 random 8;
#X obj 30 95 * 2;
#X obj 30 120 + 48;
#X obj 30 150 mtof;
#X obj 120 150 + 7;
#X obj 120 175 mtof;
#X obj 210 150 + 12;
#X obj 210 175 mtof;
#X obj 300 150 + 19;
#X obj 300 175 mtof;
#X obj 30 200 osc~;
#X obj 120 200 osc~;
#X obj 210 200 osc~;
#X obj 300 200 osc~;
#X obj 30 230 *~ 0.28;
#X obj 120 230 *~ 0.20;
#X obj 210 230 *~ 0.14;
#X obj 300 230 *~ 0.09;
#X obj 150 270 +~;
#X obj 150 295 +~;
#X obj 150 320 +~;
#X obj 50 370 lop~ 1200;
#X obj 50 395 *~ 0.72;
#X obj 400 200 osc~;
#X obj 400 150 mtof;
#X obj 400 120 + 36;
#X obj 400 230 *~ 0.32;
#X obj 450 370 noise~;
#X obj 450 395 lop~ 80;
#X obj 450 420 *~ 0.025;
#X obj 550 200 osc~ 0.09;
#X obj 550 230 lop~ 30;
#X obj 550 260 *~ 180;
#X obj 550 290 +~ 1200;
#X obj 150 345 *~;
#X obj 50 445 +~;
#X obj 50 475 rev2~ 0.88 3;
#X obj 200 445 delwrite~ solardel 500;
#X obj 200 475 delread~ solardel;
#X obj 200 500 *~ 0.38;
#X obj 200 500 *~ 0.38;
#X obj 50 510 +~;
#X obj 50 545 *~ 0.7;
#X obj 50 575 dac~;
#X connect 0 0 1 0;
#X connect 1 0 2 0;
#X connect 2 0 3 0;
#X connect 3 0 4 0;
#X connect 4 0 5 0;
#X connect 4 0 6 0;
#X connect 4 0 8 0;
#X connect 4 0 10 0;
#X connect 5 0 12 0;
#X connect 6 0 13 0;
#X connect 8 0 14 0;
#X connect 10 0 15 0;
#X connect 12 0 17 0;
#X connect 13 0 18 0;
#X connect 14 0 19 0;
#X connect 15 0 20 0;
#X connect 17 0 21 0;
#X connect 18 0 21 1;
#X connect 21 0 22 0;
#X connect 19 0 22 1;
#X connect 22 0 23 0;
#X connect 20 0 23 1;
#X connect 23 0 37 0;
#X connect 4 0 27 0;
#X connect 27 0 26 0;
#X connect 26 0 28 0;
#X connect 28 0 29 0;
#X connect 29 0 38 1;
#X connect 30 0 31 0;
#X connect 31 0 32 0;
#X connect 33 0 34 0;
#X connect 34 0 35 0;
#X connect 35 0 36 0;
#X connect 36 0 38 1;
#X connect 24 0 37 1;
#X connect 37 0 24 0;
#X connect 24 0 25 0;
#X connect 32 0 38 1;
#X connect 25 0 38 0;
#X connect 38 0 39 0;
#X connect 39 0 40 0;
#X connect 39 0 41 0;
#X connect 41 0 42 0;
#X connect 42 0 44 1;
#X connect 40 0 44 0;
#X connect 44 0 45 0;
#X connect 45 0 46 0;
#X connect 45 0 46 1;